<?xml version="1.0" encoding="utf-8"?>
<!-- Generator: Adobe Illustrator 16.0.0, SVG Export Plug-In . SVG Version: 6.00 Build 0)  -->
<!DOCTYPE svg PUBLIC "-//W3C//DTD SVG 1.1//EN" "http://www.w3.org/Graphics/SVG/1.1/DTD/svg11.dtd">
<svg version="1.1" id="Layer_1" xmlns="http://www.w3.org/2000/svg" xmlns:xlink="http://www.w3.org/1999/xlink" x="0px" y="0px"
     width="40px" height="40px" viewBox="0 0 40 40" enable-background="new 0 0 40 40" xml:space="preserve">
<polygon fill="#4557A6" points="21.096,10.553 25.216,-0.06 23.041,-0.06 19.963,8.179 16.899,-0.06 14.783,-0.06 18.902,10.553 "/>
    <polygon fill="#4557A6" points="10.582,18.899 0,14.767 0,16.948 8.214,20.036 0,23.109 0,25.23 10.582,21.1 "/>
    <polygon fill="#4557A6" points="18.902,29.325 14.783,39.94 16.957,39.94 20.035,31.701 23.1,39.94 25.216,39.94 21.096,29.325 "/>
    <polygon fill="#4557A6" points="29.417,21.1 40,25.23 40,23.051 31.787,19.962 40,16.89 40,14.767 29.417,18.899 "/>
    <polygon fill="#F15930" points="27.393,14.081 37.788,9.498 36.251,7.956 28.265,11.598 31.907,3.599 30.412,2.099 25.841,12.524"/>
    <polygon fill="#F15930" points="14.074,12.524 9.503,2.099 7.967,3.64 11.598,11.649 3.624,7.997 2.127,9.498 12.523,14.081 "/>
    <polygon fill="#F15930" points="12.606,25.799 2.212,30.383 3.749,31.925 11.734,28.283 8.092,36.281 9.588,37.78 14.158,27.356 "/>
    <polygon fill="#F15930" points="25.841,27.44 30.412,37.864 31.948,36.322 28.316,28.314 36.291,31.968 37.788,30.467
	27.393,25.883 "/>
</svg>